<svg width="72" height="76" viewBox="0 0 72 76" fill="none" xmlns="http://www.w3.org/2000/svg">
<path d="M42.1013 25.4409C42.6105 25.5403 43.1292 25.743 43.6272 26.0622C44.8914 26.8725 46.1284 27.7085 47.338 28.5702L58.898 24.1104L58.557 16.6819L46.8416 9.17334L39.9496 11.9661L40.7451 24.5717L42.1013 25.4409Z" stroke="#222221" stroke-miterlimit="10" stroke-linecap="round" stroke-linejoin="round"/>
<path d="M43.6275 26.0626C44.2788 26.48 44.9252 26.9051 45.5666 27.3379L58.565 16.6872L46.8496 9.17871L42.566 25.5769C42.914 25.6918 43.2751 25.8367 43.6275 26.0626Z" stroke="#222221" stroke-miterlimit="10" stroke-linecap="round" stroke-linejoin="round"/>
<path d="M53.621 20.7389L52.6976 12.9372L45.2233 15.3567" stroke="#222221" stroke-miterlimit="10" stroke-linecap="round" stroke-linejoin="round"/>
<path d="M39.9451 11.9736L58.9011 24.1228" stroke="#222221" stroke-miterlimit="10" stroke-linecap="round" stroke-linejoin="round"/>
<path d="M50.6832 29.2871L53.482 25.8816L47.7628 25.8156L47.5046 20.6021L43.4946 22.3558L40.2797 16.6958L38.4743 21.1488C28.8714 18.5072 18.2679 22.2505 12.6107 31.0773C5.64725 41.9421 8.8113 56.4009 19.6762 63.3643C30.541 70.3278 44.9998 67.1637 51.9632 56.2989C57.4556 47.7124 56.6293 36.8922 50.6832 29.2871ZM21.6819 60.218C12.5563 54.3693 9.89854 42.2239 15.7472 33.0983C21.5959 23.9728 33.7413 21.315 42.8669 27.1637C52.0001 33.0173 54.6503 45.1577 48.8016 54.2833C42.9529 63.4089 30.8075 66.0667 21.6819 60.218Z" stroke="#222221" stroke-miterlimit="10" stroke-linecap="round" stroke-linejoin="round"/>
</svg>
